<svg xmlns="http://www.w3.org/2000/svg" width="552" height="326.936" viewBox="0 19.282 552 326.936"><path fill="#5CAFB5" d="M176.586 244.893a7.646 7.646 0 01-7.647 7.646H29.378a7.647 7.647 0 01-7.647-7.646v-123.33a7.647 7.647 0 017.647-7.646H168.94a7.647 7.647 0 017.647 7.646l-.001 123.33z"/><path fill="#345F60" d="M167.027 171.289a5.735 5.735 0 01-5.735 5.734H37.025a5.735 5.735 0 01-5.735-5.734V129.21a5.735 5.735 0 015.735-5.735h124.267a5.736 5.736 0 015.735 5.735v42.079z"/><g fill="#FFF"><path d="M57.952 150.754c0-1.217.266-2.201.798-2.947s1.267-1.119 2.205-1.119a2.7 2.7 0 011.267.289c.365.195.667.476.91.836l.168-.985h1.1v7.616c0 .972-.283 1.718-.847 2.236-.565.521-1.379.781-2.444.781-.364 0-.757-.051-1.179-.15a4.635 4.635 0 01-1.117-.408l.35-1.071c.248.14.546.252.897.34.35.086.696.129 1.036.129.671 0 1.16-.153 1.467-.459.305-.307.458-.771.458-1.396v-.855a2.424 2.424 0 01-.889.719c-.346.16-.742.24-1.19.24-.929 0-1.659-.336-2.191-1.008s-.798-1.553-.798-2.641l-.001-.147zm1.378.146c0 .76.16 1.373.482 1.834.322.463.812.692 1.47.692.416 0 .763-.096 1.042-.282.28-.189.512-.457.693-.804v-3.483a2.15 2.15 0 00-.693-.769c-.284-.188-.627-.282-1.029-.282-.658 0-1.151.274-1.477.823-.326.552-.49 1.261-.49 2.123l.002.148zM68.327 149.982v4.42h-1.379v-10.188h3.689c1.116 0 1.967.248 2.555.742s.882 1.213.882 2.157c0 .521-.136.977-.41 1.365-.272.387-.671.694-1.194.924.56.182.962.479 1.207.887.246.408.368.912.368 1.514v.959c0 .318.036.604.105.855.07.252.191.457.365.617v.168h-1.422c-.182-.16-.298-.394-.35-.701a5.696 5.696 0 01-.077-.951v-.932c0-.551-.161-.994-.483-1.33-.322-.336-.754-.504-1.295-.504h-2.562l.001-.002zm0-1.084h2.171c.779 0 1.341-.148 1.683-.443.344-.295.516-.746.516-1.352 0-.574-.167-1.019-.501-1.332-.333-.315-.853-.473-1.557-.473h-2.31l-.002 3.6zM78.114 150.312v4.088h-1.379v-10.194h3.9c1.087 0 1.932.28 2.534.84.603.562.903 1.297.903 2.213 0 .929-.301 1.671-.903 2.224s-1.447.828-2.534.828h-2.521v.001zm0-1.085h2.521c.691 0 1.206-.186 1.547-.555.34-.371.511-.838.511-1.4 0-.563-.171-1.035-.515-1.412-.342-.377-.857-.566-1.543-.566h-2.521v3.933zM93.411 151.131l.015.043c.02.957-.317 1.758-1.008 2.404s-1.604.969-2.738.969c-1.153 0-2.092-.406-2.818-1.225-.725-.816-1.088-1.853-1.088-3.107V148.4c0-1.256.362-2.293 1.088-3.112.726-.819 1.666-1.229 2.818-1.229 1.152 0 2.07.308 2.751.92.681.614 1.014 1.429.994 2.44l-.014.043h-1.323c0-.715-.211-1.28-.63-1.694-.419-.416-1.013-.625-1.778-.625-.771 0-1.384.312-1.841.931-.457.62-.687 1.391-.687 2.309v1.826c0 .928.229 1.703.687 2.321.458.621 1.071.933 1.841.933.766 0 1.358-.207 1.778-.621.419-.411.63-.981.63-1.711h1.323zM104.977 151.834c0-.463-.175-.854-.525-1.164-.35-.314-.971-.578-1.862-.791-1.078-.258-1.919-.637-2.524-1.137-.604-.5-.907-1.131-.907-1.889 0-.795.326-1.459.976-1.994.652-.532 1.495-.801 2.531-.801 1.116 0 2.004.308 2.665.918.66.61.979 1.321.956 2.127l-.014.043h-1.316c0-.598-.198-1.08-.592-1.448-.394-.37-.96-.554-1.698-.554-.686 0-1.213.155-1.579.465-.366.31-.55.716-.55 1.216 0 .442.199.812.596 1.108s1.041.558 1.932.779c1.073.268 1.891.658 2.45 1.178.559.519.84 1.158.84 1.924 0 .822-.337 1.482-1.008 1.982-.672.5-1.55.748-2.632.748-1.017 0-1.918-.277-2.699-.828-.781-.555-1.161-1.293-1.137-2.217l.015-.041h1.316c0 .652.24 1.15.721 1.49s1.075.512 1.786.512c.696 0 1.246-.146 1.652-.438.404-.29.607-.688.607-1.188zM111.537 154.547c-1.055 0-1.894-.35-2.517-1.053s-.935-1.613-.935-2.734v-.307c0-1.078.32-1.975.963-2.693.642-.715 1.401-1.072 2.279-1.072 1.021 0 1.794.308 2.317.924.523.615.784 1.438.784 2.466v.858h-4.916l-.021.037c.015.726.199 1.322.554 1.791.354.467.852.701 1.491.701.466 0 .876-.066 1.228-.199a2.77 2.77 0 00.914-.551l.539.896c-.271.268-.628.492-1.072.67-.441.178-.979.266-1.608.266zm-.211-6.777c-.462 0-.856.195-1.183.582-.327.392-.528.877-.603 1.463l.014.035h3.494v-.182c0-.539-.145-.992-.434-1.354-.289-.363-.718-.544-1.288-.544zM119.847 148.045l-.708-.043c-.364 0-.671.086-.92.26-.25.172-.443.414-.578.728v5.413h-1.379v-7.575h1.232l.133 1.104c.215-.391.48-.697.794-.916a1.86 1.86 0 011.089-.328 1.854 1.854 0 01.525.076l-.188 1.281zM124.117 152.168l.119.533h.042l.133-.533 1.744-5.342h1.407l-2.787 7.576h-1.042l-2.822-7.576h1.414l1.792 5.342zM132.141 154.547c-1.055 0-1.894-.35-2.517-1.053-.624-.703-.935-1.613-.935-2.734v-.307c0-1.078.32-1.975.962-2.693.642-.715 1.402-1.072 2.279-1.072 1.022 0 1.794.308 2.317.924.523.615.784 1.438.784 2.466v.858h-4.915l-.021.037c.014.726.199 1.322.553 1.791.355.467.852.701 1.491.701a3.47 3.47 0 001.229-.199 2.77 2.77 0 00.914-.551l.539.896c-.271.268-.628.492-1.071.67-.442.178-.979.266-1.609.266zm-.21-6.777c-.462 0-.856.195-1.184.582-.327.392-.527.877-.602 1.463l.014.035h3.494v-.182c0-.539-.145-.992-.435-1.354-.288-.363-.718-.544-1.287-.544zM140.451 148.045l-.708-.043c-.364 0-.671.086-.92.26-.25.172-.442.414-.577.728v5.413h-1.379v-7.575h1.231l.133 1.104c.215-.391.48-.697.794-.916a1.86 1.86 0 011.089-.328 1.844 1.844 0 01.525.076l-.188 1.281z"/></g><g fill="#FFF"><path d="M67.797 237.066l.014.043c.02.955-.317 1.758-1.009 2.403-.69.646-1.603.97-2.737.97-1.153 0-2.092-.408-2.818-1.226-.725-.817-1.088-1.854-1.088-3.106v-1.814c0-1.256.362-2.293 1.088-3.111.726-.82 1.666-1.229 2.818-1.229s2.07.31 2.751.922 1.014 1.429.994 2.439l-.014.043h-1.323c0-.718-.211-1.279-.63-1.695-.419-.416-1.013-.623-1.778-.623-.771 0-1.384.312-1.841.93-.457.621-.686 1.392-.686 2.31v1.825c0 .929.229 1.703.686 2.322.458.621 1.072.931 1.841.931.766 0 1.358-.205 1.778-.617.419-.414.63-.984.63-1.713h1.324v-.004zM73.44 234.855h2.793v1.245H73.44v3.214h-1.38V236.1h-2.814v-1.245h2.814v-2.963h1.38v2.963zM81.863 234.855h2.793v1.245h-2.793v3.214h-1.38V236.1h-2.814v-1.245h2.814v-2.963h1.38v2.963zM96.208 237.77a1.5 1.5 0 00-.524-1.166c-.35-.312-.971-.575-1.862-.788-1.078-.259-1.919-.638-2.525-1.14-.604-.498-.906-1.129-.906-1.887 0-.795.326-1.461.976-1.992.651-.533 1.495-.801 2.531-.801 1.115 0 2.003.307 2.664.916.66.611.979 1.322.956 2.129l-.015.043h-1.316c0-.598-.198-1.08-.592-1.449-.394-.369-.959-.555-1.697-.555-.687 0-1.213.156-1.58.467-.366.309-.549.715-.549 1.215 0 .443.199.812.596 1.109.396.295 1.041.557 1.932.779 1.073.268 1.891.657 2.45 1.176.559.52.84 1.16.84 1.926 0 .82-.336 1.482-1.009 1.982-.671.5-1.549.748-2.632.748-1.017 0-1.917-.275-2.698-.828-.782-.556-1.162-1.293-1.137-2.218l.014-.041h1.316c0 .652.24 1.15.721 1.49.48.34 1.075.513 1.785.513.696 0 1.247-.146 1.653-.438.405-.292.608-.689.608-1.19zM102.767 240.484c-1.056 0-1.894-.353-2.517-1.054-.623-.703-.935-1.614-.935-2.733v-.31c0-1.078.32-1.975.962-2.69.641-.717 1.402-1.074 2.279-1.074 1.022 0 1.794.309 2.317.924.522.617.783 1.438.783 2.465v.861h-4.915l-.021.035c.014.727.199 1.322.554 1.791.354.469.852.701 1.491.701.467 0 .876-.066 1.229-.199s.658-.316.914-.549l.539.896c-.271.269-.628.49-1.071.67-.442.177-.978.266-1.609.266zm-.209-6.777c-.461 0-.856.193-1.184.582-.327.389-.527.875-.602 1.461l.015.035h3.494v-.183c0-.538-.145-.989-.434-1.354-.29-.359-.721-.541-1.289-.541zM111.077 233.979l-.707-.04c-.364 0-.671.086-.92.26-.25.172-.442.414-.577.729v5.412h-1.38v-7.575h1.232l.133 1.104c.215-.392.48-.697.794-.916a1.84 1.84 0 011.089-.33c.103 0 .201.01.294.022.094.019.17.037.231.056l-.189 1.278zM115.349 238.102l.12.533h.042l.133-.533 1.744-5.34h1.407l-2.787 7.576h-1.043l-2.822-7.576h1.414l1.792 5.34zM121.81 230.82h-1.379v-1.404h1.379v1.404zm0 9.518h-1.379v-7.576h1.379v7.576zM127.298 239.398a1.86 1.86 0 001.208-.425c.348-.28.521-.629.521-1.039h1.239l.014.041c.023.654-.268 1.236-.872 1.744a3.172 3.172 0 01-2.111.765c-1.101 0-1.944-.359-2.527-1.078-.583-.72-.875-1.623-.875-2.709v-.295c0-1.078.292-1.979.878-2.699.586-.721 1.428-1.082 2.524-1.082.887 0 1.612.262 2.174.783.562.524.834 1.166.816 1.926l-.014.043h-1.247c0-.461-.163-.855-.49-1.18-.327-.324-.74-.486-1.239-.486-.724 0-1.241.26-1.551.779-.31.519-.466 1.157-.466 1.911v.294c0 .774.154 1.42.462 1.934.311.516.829.773 1.556.773zM135.259 240.484c-1.055 0-1.894-.353-2.517-1.054-.623-.703-.935-1.614-.935-2.733v-.31c0-1.078.32-1.975.962-2.69.641-.717 1.401-1.074 2.279-1.074 1.022 0 1.794.309 2.317.924.522.617.784 1.438.784 2.465v.861h-4.916l-.021.035c.015.727.199 1.322.554 1.791.354.469.852.701 1.491.701.466 0 .876-.066 1.228-.199.353-.133.658-.316.914-.549l.539.896c-.271.269-.628.49-1.071.67-.442.177-.978.266-1.608.266zm-.21-6.777c-.462 0-.856.193-1.184.582-.328.389-.528.875-.603 1.461l.015.035h3.494v-.183c0-.538-.145-.989-.434-1.354-.29-.359-.718-.541-1.288-.541z"/></g><path fill="#5CAFB5" d="M530.27 150.258a7.647 7.647 0 01-7.646 7.648H383.062a7.646 7.646 0 01-7.647-7.648V26.929a7.647 7.647 0 017.647-7.647h139.562a7.647 7.647 0 017.646 7.647v123.329z"/><path fill="#345F60" d="M442.327 76.636a5.737 5.737 0 01-5.735 5.736h-45.884a5.737 5.737 0 01-5.735-5.736v-42.06a5.736 5.736 0 015.735-5.735h45.884a5.737 5.737 0 015.735 5.735v42.06z"/><g fill="#FFF"><path d="M395.404 48.357c0-1.218.267-2.2.799-2.947s1.268-1.12 2.205-1.12c.479 0 .902.097 1.268.29.364.194.667.473.91.836l.168-.987h1.1v7.618c0 .971-.281 1.716-.847 2.237-.564.521-1.38.781-2.444.781a5.15 5.15 0 01-1.179-.151 4.661 4.661 0 01-1.117-.409l.351-1.071c.248.14.546.253.896.339.351.085.695.128 1.036.128.672 0 1.16-.152 1.468-.458.305-.306.457-.771.457-1.396v-.855a2.397 2.397 0 01-.889.718 2.787 2.787 0 01-1.189.241c-.93 0-1.659-.336-2.19-1.008s-.799-1.552-.799-2.639v-.146l-.004-.001zm1.379.147c0 .761.162 1.373.483 1.835.321.461.812.693 1.471.693.415 0 .763-.095 1.043-.283.279-.189.512-.457.691-.802v-3.486a2.156 2.156 0 00-.691-.767c-.285-.189-.628-.284-1.03-.284-.657 0-1.15.275-1.477.826-.325.55-.49 1.258-.49 2.121v.147zM405.779 47.587v4.418h-1.378V41.818h3.688c1.116 0 1.968.248 2.558.742.587.494.882 1.214.882 2.156 0 .523-.139.978-.411 1.365-.271.387-.67.696-1.193.924.561.182.963.478 1.208.886.245.408.367.914.367 1.515v.959c0 .317.036.602.104.854.069.252.191.458.364.616v.168h-1.422c-.181-.159-.298-.392-.35-.7a5.707 5.707 0 01-.078-.952v-.932c0-.551-.16-.994-.482-1.331-.321-.336-.754-.504-1.295-.504h-2.562v.003zm0-1.085h2.172c.779 0 1.342-.148 1.683-.444.345-.295.517-.747.517-1.353 0-.573-.167-1.016-.5-1.331-.335-.314-.854-.472-1.56-.472h-2.311l-.001 3.6zM415.567 47.917v4.088h-1.38V41.811h3.899c1.089 0 1.933.28 2.534.84.603.56.904 1.297.904 2.212 0 .929-.303 1.67-.904 2.222-.603.554-1.446.83-2.534.83l-2.519.002zm0-1.086h2.521c.691 0 1.207-.186 1.548-.555.341-.371.513-.838.513-1.402 0-.562-.172-1.034-.517-1.412-.342-.377-.855-.566-1.544-.566h-2.521v3.935zM430.864 48.735l.016.042c.02.957-.317 1.759-1.01 2.405-.69.646-1.604.969-2.736.969-1.153 0-2.093-.408-2.817-1.225-.727-.817-1.091-1.853-1.091-3.109v-1.813c0-1.255.362-2.293 1.091-3.111.726-.82 1.665-1.229 2.817-1.229 1.151 0 2.07.307 2.751.92.682.613 1.014 1.427.994 2.439l-.016.042h-1.322c0-.714-.21-1.279-.63-1.694-.419-.415-1.013-.624-1.777-.624-.771 0-1.385.31-1.842.93-.457.621-.687 1.39-.687 2.309v1.826c0 .928.229 1.702.687 2.322.458.621 1.071.93 1.842.93.766 0 1.358-.206 1.777-.619.42-.413.63-.983.63-1.712l1.323.002zM404.377 67.6c0-.463-.175-.852-.525-1.165-.35-.312-.971-.576-1.86-.791-1.079-.257-1.92-.637-2.524-1.136-.604-.5-.906-1.13-.906-1.888 0-.795.325-1.459.977-1.993.652-.534 1.495-.8 2.531-.8 1.114 0 2.004.306 2.664.917.66.611.979 1.321.955 2.129l-.015.042h-1.314c0-.598-.198-1.08-.593-1.449-.395-.369-.96-.554-1.697-.554-.688 0-1.213.156-1.579.466s-.55.715-.55 1.215c0 .443.198.814.596 1.11.396.296 1.041.556 1.932.78 1.073.266 1.893.658 2.45 1.176.56.518.841 1.159.841 1.925 0 .821-.338 1.482-1.01 1.982s-1.549.749-2.632.749c-1.018 0-1.918-.277-2.698-.83-.782-.553-1.162-1.292-1.138-2.215l.014-.042h1.316c0 .653.241 1.15.721 1.491.481.34 1.075.511 1.786.511.696 0 1.247-.146 1.652-.438a1.4 1.4 0 00.606-1.192zM409.613 60.764v1.828h1.436v1.022h-1.436v4.6c0 .355.072.604.221.75.146.145.342.217.584.217a1.678 1.678 0 00.52-.098l.181.945a1.209 1.209 0 01-.451.206 2.269 2.269 0 01-.599.081c-.562 0-1.006-.169-1.337-.508-.332-.338-.498-.87-.498-1.594v-4.6h-1.204v-1.022h1.204v-1.828l1.379.001zM417.847 69.047a2.547 2.547 0 01-.916.938c-.373.219-.805.329-1.295.329-.826 0-1.471-.264-1.933-.791-.461-.528-.692-1.349-.692-2.465v-4.467h1.379v4.481c0 .808.119 1.363.358 1.667.237.303.607.455 1.112.455.49 0 .896-.1 1.216-.297s.561-.48.725-.844v-5.461h1.379v7.576h-1.237l-.096-1.121zM427.943 66.667c0 1.092-.265 1.973-.788 2.643-.526.67-1.247 1.005-2.167 1.005-.499 0-.936-.098-1.304-.291a2.402 2.402 0 01-.915-.857l-.169 1.001h-1.128V59.246h1.381v4.242c.237-.336.532-.593.886-.771.352-.178.764-.266 1.234-.266.935 0 1.661.373 2.185 1.12.522.747.785 1.729.785 2.947v.149zm-1.381-.147c0-.868-.159-1.576-.479-2.125-.319-.547-.806-.822-1.459-.822-.425 0-.783.104-1.075.312a2.199 2.199 0 00-.697.836v3.283c.179.374.41.666.697.875.287.21.649.316 1.089.316.648 0 1.131-.231 1.448-.693s.477-1.074.477-1.834v-.148h-.001z"/></g><g fill="#FFF"><path d="M417.157 141.285v4.418h-1.38v-10.206h3.689c1.115 0 1.968.248 2.555.742.589.493.883 1.214.883 2.161 0 .525-.137.982-.409 1.371-.272.39-.671.701-1.194.929.562.183.963.479 1.207.889.246.408.369.914.369 1.517v.959c0 .315.035.602.104.854.069.252.191.459.364.618v.168h-1.421c-.183-.158-.299-.392-.351-.7s-.077-.625-.077-.953v-.93c0-.551-.161-.994-.482-1.331s-.755-.504-1.296-.504l-2.561-.002zm0-1.09h2.171c.779 0 1.341-.148 1.684-.445.344-.297.517-.751.517-1.359 0-.576-.168-1.021-.502-1.336-.333-.313-.853-.472-1.558-.472h-2.311l-.001 3.612zM430.116 144.583a2.562 2.562 0 01-.917.937c-.372.219-.805.33-1.295.33-.826 0-1.471-.264-1.933-.791-.462-.529-.692-1.351-.692-2.466v-4.481h1.38v4.496c0 .809.12 1.362.356 1.666.238.304.608.455 1.114.455.489 0 .895-.101 1.214-.297.32-.197.562-.48.726-.845v-5.476h1.38v7.59h-1.239l-.094-1.118zM440.213 142.203c0 1.092-.264 1.973-.788 2.643s-1.247 1.004-2.167 1.004c-.499 0-.934-.098-1.302-.291a2.39 2.39 0 01-.917-.856l-.168 1.001h-1.127v-10.939h1.379v4.25a2.37 2.37 0 01.886-.774c.354-.179.766-.267 1.235-.267.935 0 1.662.375 2.185 1.125s.784 1.737.784 2.957v.147zm-1.38-.148c0-.867-.159-1.58-.479-2.131-.318-.55-.806-.826-1.459-.826-.425 0-.782.105-1.075.313s-.524.487-.697.84v3.288c.179.374.41.665.697.875.288.211.649.314 1.089.314.647 0 1.132-.229 1.447-.691.318-.462.478-1.073.478-1.835v-.147h-.001zM444.42 142.895l.244.953h.043l1.861-5.734h1.532l-3.186 8.752a3.907 3.907 0 01-.824 1.33c-.355.379-.838.568-1.444.568-.111 0-.254-.015-.428-.041a4.542 4.542 0 01-.397-.072l.14-1.086c-.027-.004.055 0 .248.016.193.014.316.02.367.02.295 0 .535-.131.721-.391.188-.262.344-.551.47-.869l.328-.791-2.812-7.436h1.54l1.597 4.781zM460.914 142.434l.014.041c.02.957-.316 1.76-1.008 2.405s-1.604.97-2.738.97c-1.151 0-2.093-.41-2.817-1.227-.726-.816-1.088-1.854-1.088-3.107v-1.82c0-1.262.361-2.305 1.088-3.123.726-.82 1.666-1.229 2.817-1.229 1.153 0 2.07.308 2.751.921.682.612 1.015 1.428.994 2.446l-.014.042h-1.323c0-.718-.211-1.286-.63-1.701-.42-.415-1.014-.624-1.778-.624-.77 0-1.384.31-1.841.931-.457.623-.686 1.396-.686 2.319v1.833c0 .928.228 1.702.686 2.322s1.071.932 1.841.932c.767 0 1.358-.207 1.778-.619.419-.414.63-.984.63-1.713h1.324v.001zM464.309 145.703h-1.379v-10.939h1.379v10.939zM468.209 136.17h-1.38v-1.406h1.38v1.406zm0 9.533h-1.38v-7.59h1.38v7.59zM473.76 145.85c-1.055 0-1.893-.35-2.517-1.053s-.937-1.613-.937-2.734v-.307c0-1.08.321-1.982.965-2.701.641-.72 1.399-1.08 2.277-1.08 1.022 0 1.794.309 2.317.928.521.619.783 1.445.783 2.476v.86h-4.915l-.021.035c.014.728.198 1.324.553 1.791.355.469.853.703 1.491.703.467 0 .877-.066 1.229-.201.353-.131.657-.315.914-.549l.539.896c-.271.269-.629.491-1.071.67-.44.176-.977.266-1.607.266zm-.209-6.788c-.462 0-.856.195-1.184.586s-.527.879-.604 1.469l.016.035h3.494v-.183c0-.542-.146-.995-.436-1.36-.287-.363-.718-.547-1.286-.547zM479.719 138.113l.099 1.132c.253-.403.566-.718.948-.94a2.53 2.53 0 011.3-.332c.814 0 1.447.24 1.896.721.449.48.672 1.223.672 2.227v4.781h-1.379v-4.754c0-.67-.132-1.147-.396-1.428-.265-.283-.666-.422-1.208-.422-.396 0-.747.096-1.054.289-.307.191-.55.455-.731.786v5.528h-1.379v-7.59l1.232.002zM488.742 136.281v1.832h1.436v1.025h-1.436v4.609c0 .354.074.604.222.75.146.145.341.217.584.217a1.682 1.682 0 00.52-.096l.181.944a1.2 1.2 0 01-.452.207c-.198.054-.396.08-.598.08-.562 0-1.006-.168-1.338-.507-.331-.339-.496-.87-.496-1.594v-4.608h-1.205v-1.026h1.205v-1.832l1.377-.001z"/></g><path fill="#5CAFB5" d="M530.27 338.57a7.646 7.646 0 01-7.646 7.647H383.062a7.646 7.646 0 01-7.647-7.647V215.26a7.647 7.647 0 017.647-7.646h139.562a7.646 7.646 0 017.646 7.646v123.31z"/><path fill="#345F60" d="M442.327 264.967a5.736 5.736 0 01-5.735 5.734h-45.884a5.736 5.736 0 01-5.735-5.734v-42.061a5.736 5.736 0 015.735-5.734h45.884a5.736 5.736 0 015.735 5.734v42.061z"/><g fill="#FFF"><path d="M395.404 236.688c0-1.217.267-2.198.799-2.946.532-.746 1.268-1.119 2.205-1.119.479 0 .902.099 1.268.291.365.193.667.473.91.836l.168-.985h1.1v7.616c0 .971-.281 1.715-.847 2.236-.564.521-1.38.778-2.444.778a5.14 5.14 0 01-1.179-.149 4.661 4.661 0 01-1.117-.408l.351-1.072c.248.142.546.254.896.341.351.086.695.129 1.036.129.672 0 1.16-.152 1.468-.459.305-.308.457-.771.457-1.396v-.854a2.41 2.41 0 01-.889.719c-.346.16-.742.24-1.189.24-.93 0-1.659-.337-2.19-1.009s-.799-1.553-.799-2.641v-.145h-.003v-.003zm1.379.146c0 .762.162 1.373.483 1.836.321.461.812.693 1.471.693.415 0 .763-.097 1.043-.283a2.13 2.13 0 00.691-.803v-3.484a2.143 2.143 0 00-.691-.768c-.285-.189-.628-.285-1.03-.285-.657 0-1.15.274-1.477.826-.325.551-.49 1.258-.49 2.12v.148zM405.779 235.918v4.418h-1.378v-10.188h3.688c1.116 0 1.968.248 2.558.742.587.493.882 1.215.882 2.155 0 .523-.139.979-.411 1.365-.271.387-.67.695-1.193.924.561.184.963.479 1.208.887.245.408.367.914.367 1.517v.957c0 .317.036.604.104.854.069.251.191.457.364.617v.168h-1.422c-.181-.16-.298-.393-.35-.699a5.693 5.693 0 01-.078-.953v-.93c0-.551-.16-.994-.482-1.332-.321-.336-.754-.504-1.295-.504l-2.562.002zm0-1.084h2.172c.779 0 1.342-.15 1.683-.445.345-.295.517-.746.517-1.352 0-.572-.167-1.016-.5-1.33-.335-.316-.854-.473-1.56-.473h-2.311l-.001 3.6zM415.567 236.248v4.088h-1.38v-10.193h3.899c1.089 0 1.933.279 2.534.84.603.562.904 1.297.904 2.212 0 .93-.303 1.67-.904 2.223-.603.555-1.446.83-2.534.83h-2.519zm0-1.086h2.521c.691 0 1.207-.187 1.548-.555.341-.371.513-.839.513-1.402 0-.564-.172-1.033-.517-1.412-.342-.379-.855-.566-1.544-.566h-2.521v3.935zM430.864 237.066l.016.041c.02.957-.317 1.758-1.01 2.405-.69.646-1.604.97-2.736.97-1.153 0-2.093-.408-2.817-1.228-.727-.815-1.091-1.852-1.091-3.106v-1.814c0-1.254.362-2.291 1.091-3.111.726-.817 1.665-1.229 2.817-1.229 1.151 0 2.07.307 2.751.92.682.615 1.014 1.428.994 2.441l-.016.041h-1.322c0-.715-.21-1.279-.63-1.693-.419-.416-1.013-.625-1.777-.625-.771 0-1.385.311-1.842.93-.457.621-.687 1.394-.687 2.312v1.825c0 .929.229 1.701.687 2.322.458.619 1.071.931 1.842.931.766 0 1.358-.207 1.777-.619.42-.414.63-.984.63-1.713h1.323zM404.377 255.93c0-.463-.175-.852-.525-1.164-.35-.312-.971-.575-1.86-.791-1.079-.256-1.92-.637-2.524-1.137-.604-.5-.906-1.129-.906-1.887 0-.797.325-1.461.977-1.994.652-.533 1.495-.801 2.531-.801 1.114 0 2.004.307 2.664.918.66.61.979 1.32.955 2.129l-.015.041h-1.314c0-.598-.198-1.078-.593-1.449-.395-.369-.96-.553-1.697-.553-.688 0-1.213.156-1.579.465-.366.311-.55.715-.55 1.217 0 .441.198.812.596 1.107.396.297 1.041.557 1.932.781 1.073.266 1.893.655 2.45 1.176.56.518.841 1.16.841 1.926 0 .82-.338 1.479-1.01 1.979s-1.549.75-2.632.75c-1.018 0-1.918-.276-2.698-.829-.782-.554-1.162-1.293-1.138-2.216l.014-.043h1.316c0 .654.241 1.15.721 1.49.481.342 1.075.512 1.786.512.696 0 1.247-.146 1.652-.438.403-.291.606-.685.606-1.189zM409.613 249.096v1.828h1.436v1.021h-1.436v4.6c0 .354.072.604.221.748.146.145.342.219.584.219a1.627 1.627 0 00.52-.098l.181.947a1.225 1.225 0 01-.451.205 2.226 2.226 0 01-.599.079c-.562 0-1.006-.168-1.337-.508-.332-.338-.498-.869-.498-1.592v-4.6h-1.204v-1.021h1.204v-1.828h1.379zM417.847 257.377a2.543 2.543 0 01-.916.939c-.373.219-.805.327-1.295.327-.826 0-1.471-.264-1.933-.79-.461-.529-.692-1.351-.692-2.466v-4.467h1.379v4.48c0 .809.119 1.362.358 1.666.237.303.607.455 1.112.455.49 0 .896-.101 1.216-.298.32-.198.561-.479.725-.844v-5.461h1.379v7.576h-1.237l-.096-1.117zM427.943 254.996c0 1.094-.265 1.975-.788 2.645-.526.67-1.247 1.004-2.167 1.004-.499 0-.936-.096-1.304-.288a2.4 2.4 0 01-.915-.859l-.169 1.002h-1.128v-10.922h1.381v4.242c.237-.338.532-.593.886-.771.352-.18.764-.268 1.234-.268.935 0 1.661.375 2.185 1.121.522.746.785 1.729.785 2.946v.148zm-1.381-.146c0-.866-.159-1.575-.479-2.125-.319-.547-.806-.821-1.459-.821-.425 0-.783.104-1.075.312a2.191 2.191 0 00-.697.836v3.285c.179.373.41.664.697.875.287.209.649.314 1.089.314.648 0 1.131-.23 1.448-.691.317-.463.477-1.074.477-1.836v-.149h-.001z"/></g><g fill="#FFF"><path d="M394.184 331.391h-4.271l-.966 2.625h-1.407l3.94-10.192h1.185l3.88 10.192h-1.408l-.953-2.625zm-3.843-1.157h3.431l-1.681-4.644h-.042l-1.708 4.644zM399.203 326.439l.1 1.127c.252-.4.567-.714.949-.937a2.549 2.549 0 011.297-.332c.817 0 1.45.24 1.898.719.447.479.672 1.218.672 2.216v4.782h-1.38v-4.756c0-.666-.132-1.141-.396-1.42-.264-.281-.667-.42-1.207-.42-.396 0-.749.096-1.054.287-.306.188-.55.453-.732.783v5.524h-1.38v-7.578h1.232l.001.005zM406.093 330.367c0-1.219.261-2.199.78-2.947.52-.746 1.25-1.119 2.188-1.119.443 0 .838.08 1.181.244.342.164.636.4.878.715v-4.168h1.38v10.924h-1.127l-.16-.932a2.46 2.46 0 01-.91.805c-.358.183-.776.273-1.253.273-.925 0-1.647-.334-2.171-1.004-.522-.67-.784-1.551-.784-2.644l-.002-.147zm1.38.149c0 .767.156 1.377.47 1.838.312.46.799.688 1.454.688.411 0 .758-.092 1.037-.279.279-.186.51-.446.688-.782v-3.535a2.138 2.138 0 00-.69-.746c-.282-.185-.621-.277-1.018-.277-.663 0-1.152.273-1.467.82-.315.545-.474 1.254-.474 2.129v.144zM418.429 327.658l-.708-.043c-.362 0-.671.086-.92.26a1.66 1.66 0 00-.577.729v5.412h-1.38v-7.575h1.232l.133 1.104c.216-.391.479-.697.794-.916s.678-.328 1.089-.328a1.857 1.857 0 01.526.076l-.189 1.281zM419.584 330.158c0-1.121.304-2.045.91-2.771.606-.727 1.432-1.09 2.472-1.09 1.05 0 1.88.361 2.488 1.086.61.724.914 1.648.914 2.771v.153c0 1.129-.303 2.054-.909 2.771-.607.719-1.434 1.078-2.479 1.078-1.046 0-1.873-.359-2.482-1.08-.608-.723-.914-1.646-.914-2.771v-.147zm1.379.151c0 .802.169 1.464.507 1.984.339.521.841.783 1.509.783.658 0 1.157-.262 1.498-.783.341-.521.513-1.184.513-1.984v-.153c0-.793-.172-1.453-.517-1.98-.342-.524-.846-.789-1.508-.789-.658 0-1.157.263-1.495.789-.338.527-.507 1.188-.507 1.98v.153zM429.833 324.5h-1.379v-1.408h1.379v1.408zm0 9.516h-1.379v-7.575h1.379v7.575zM431.926 330.367c0-1.219.26-2.199.779-2.947.521-.746 1.251-1.119 2.188-1.119.443 0 .838.08 1.181.244s.636.4.879.715v-4.168h1.38v10.924h-1.128l-.161-.932a2.446 2.446 0 01-.908.805c-.36.183-.777.273-1.254.273-.925 0-1.647-.334-2.171-1.004-.522-.67-.784-1.551-.784-2.644v-.147zm1.38.149c0 .767.156 1.377.47 1.838.312.46.798.688 1.455.688.411 0 .757-.092 1.036-.279.28-.186.51-.446.688-.782v-3.535a2.129 2.129 0 00-.69-.746c-.28-.185-.621-.277-1.019-.277-.661 0-1.151.273-1.466.82-.315.545-.474 1.254-.474 2.129v.144zM443.352 330.248h-3.43v-1.078h3.43v1.078zM449.254 323.822h1.379v7.371c0 .909-.289 1.633-.865 2.166-.575.534-1.322.803-2.242.803-.979 0-1.761-.25-2.338-.75-.579-.5-.857-1.223-.835-2.17l.016-.043h1.321c0 .631.16 1.102.479 1.41.319.311.771.467 1.354.467.508 0 .925-.172 1.246-.517.321-.342.482-.801.482-1.372l.003-7.365zM457.746 334.016a9.423 9.423 0 01-.108-.606 4.887 4.887 0 01-.046-.527 3.247 3.247 0 01-1.005.914 2.573 2.573 0 01-1.335.367c-.787 0-1.389-.203-1.803-.605-.413-.403-.618-.961-.618-1.67 0-.725.292-1.289.878-1.696.586-.408 1.38-.613 2.385-.613h1.497v-.75c0-.443-.136-.795-.406-1.053-.271-.261-.652-.39-1.147-.39-.443 0-.804.113-1.082.34-.278.226-.416.496-.416.814h-1.317l-.014-.041c-.027-.551.232-1.055.78-1.512s1.257-.688 2.125-.688c.857 0 1.55.219 2.071.654.522.438.784 1.065.784 1.889v3.646c0 .271.015.532.042.785.028.25.079.497.153.741l-1.418.001zM455.457 333a2.47 2.47 0 001.352-.385c.401-.256.662-.547.783-.879v-1.229h-1.548c-.555 0-1 .14-1.333.418-.334.279-.501.607-.501.984 0 .336.104.602.315.797.211.196.521.294.932.294zM463.683 331.781l.12.533h.041l.135-.533 1.742-5.342h1.407l-2.786 7.575h-1.043l-2.822-7.575h1.414l1.792 5.342zM473.203 334.016a9.355 9.355 0 01-.107-.606 4.645 4.645 0 01-.046-.527 3.235 3.235 0 01-1.005.914 2.577 2.577 0 01-1.334.367c-.789 0-1.39-.203-1.804-.605-.413-.403-.618-.961-.618-1.67 0-.725.292-1.289.878-1.696.586-.408 1.38-.613 2.384-.613h1.498v-.75c0-.443-.136-.795-.406-1.053-.271-.261-.652-.39-1.147-.39-.443 0-.804.113-1.082.34-.278.226-.416.496-.416.814h-1.316l-.015-.041c-.027-.551.232-1.055.78-1.512s1.256-.688 2.125-.688c.857 0 1.549.219 2.071.654.522.438.783 1.065.783 1.889v3.646c0 .271.016.532.043.785.027.25.079.497.153.741l-1.419.001zM470.914 333c.499 0 .951-.129 1.353-.385s.661-.547.783-.879v-1.229h-1.547c-.556 0-1.001.14-1.334.418-.335.279-.502.607-.502.984 0 .336.104.602.315.797.211.196.522.294.932.294zM488.031 330.744l.015.043c.02.957-.317 1.76-1.008 2.404-.692.646-1.604.971-2.738.971-1.151 0-2.093-.408-2.817-1.228-.727-.815-1.088-1.852-1.088-3.108v-1.812c0-1.256.361-2.293 1.088-3.11.726-.818 1.666-1.229 2.817-1.229 1.153 0 2.07.308 2.751.92.682.613 1.014 1.429.994 2.439l-.015.041h-1.323c0-.713-.21-1.277-.63-1.693-.419-.414-1.013-.623-1.777-.623-.771 0-1.384.312-1.841.933-.457.618-.688 1.389-.688 2.307v1.826c0 .93.229 1.703.688 2.324.457.618 1.07.93 1.841.93.767 0 1.358-.207 1.777-.621.42-.412.63-.982.63-1.711l1.324-.003zM491.428 334.016h-1.379v-10.924h1.379v10.924zM495.327 324.5h-1.38v-1.408h1.38v1.408zm0 9.516h-1.38v-7.575h1.38v7.575zM500.878 334.162c-1.055 0-1.894-.351-2.517-1.053-.624-.703-.937-1.613-.937-2.734v-.307c0-1.08.32-1.978.963-2.693.643-.715 1.401-1.074 2.279-1.074 1.021 0 1.794.31 2.316.924.522.617.783 1.438.783 2.466v.86h-4.915l-.021.035c.014.727.198 1.324.554 1.793.354.467.852.701 1.49.701.467 0 .877-.066 1.229-.201.354-.133.657-.316.914-.549l.538.896c-.27.269-.627.492-1.07.67-.439.176-.975.266-1.606.266zm-.209-6.777c-.462 0-.856.195-1.184.582-.327.392-.527.877-.604 1.461l.015.035h3.493v-.18c0-.539-.145-.992-.434-1.354-.287-.363-.718-.544-1.286-.544zM506.836 326.439l.099 1.127c.253-.4.567-.714.949-.937a2.553 2.553 0 011.299-.332c.815 0 1.448.24 1.896.719.448.479.672 1.218.672 2.216v4.782h-1.38v-4.756c0-.666-.131-1.141-.396-1.42-.263-.281-.665-.42-1.207-.42-.396 0-.748.096-1.053.287-.307.188-.55.453-.731.783v5.524h-1.38v-7.578h1.231l.001.005zM515.86 324.613v1.826h1.435v1.021h-1.435v4.602c0 .354.073.604.222.748.146.146.341.218.583.218a1.664 1.664 0 00.52-.097l.182.945a1.216 1.216 0 01-.451.207c-.199.055-.398.08-.599.08-.562 0-1.008-.168-1.338-.508-.331-.338-.497-.869-.497-1.593v-4.602h-1.205v-1.021h1.205v-1.826h1.378z"/></g><path fill="#345F60" d="M160.615 115.811l-3.108-2.518c77.05-95.11 155.603-76.106 218.718-60.838 4.41 1.067 8.754 2.118 13.025 3.113l-.908 3.896c-4.281-.998-8.637-2.051-13.058-3.121-31.13-7.531-66.41-16.065-102.757-10.933-41.701 5.892-78.308 28.92-111.912 70.401z"/><path fill="#345F60" d="M155.331 109.16l-1.97 12.426 11.747-4.505zM166.32 153.877c-2.209 0-3.421-.027-3.485-.027l.099-4c.353.01 35.843.783 80.519-6.518 41.12-6.74 98.663-21.875 139.281-55.807l2.563 3.07c-22.812 19.058-65.842 44.359-141.277 56.696-36.921 6.029-67.639 6.586-77.7 6.586z"/><path fill="#345F60" d="M386.639 95.07l4.327-11.815-12.398 2.157zM295.861 272.781c-21.088 0-41.488-4.238-61.085-12.722-27.556-11.928-47.314-29.895-59.036-42.868-15.212-16.834-23.987-32.943-27.127-42.406l3.797-1.26c5.882 17.727 34.143 61.303 83.955 82.862 42.707 18.486 89.428 16.259 138.861-6.619l1.681 3.632c-27.912 12.916-55.005 19.381-81.046 19.381z"/><path fill="#345F60" d="M377.04 258.066l7.246-10.285-12.531-1.135zM393.84 234.518c-50.441-26.803-160.207-55.418-217.456-61.238l.404-3.979c57.603 5.857 168.103 34.681 218.928 61.687l-1.876 3.53z"/><path fill="#345F60" d="M179.055 165.215l-11.477 5.158 10.203 7.361z"/><g fill="#467277"><path d="M212.61 53.03l1.718 3.408-1.15.579-4.281-8.497 3.251-1.637c.905-.458 1.728-.578 2.464-.364.737.214 1.298.703 1.684 1.465.389.774.449 1.518.18 2.232-.271.714-.857 1.299-1.765 1.756l-2.101 1.058zm-.457-.905l2.102-1.058c.576-.29.928-.661 1.055-1.113.129-.452.075-.913-.162-1.383-.236-.47-.577-.791-1.021-.961-.444-.171-.952-.112-1.524.177l-2.102 1.058 1.652 3.28zM221.331 46.438l-.614.245c-.307.144-.532.339-.675.583-.144.245-.21.526-.2.845l2.146 4.573-1.166.546-3.003-6.401 1.043-.488.549.882c.025-.417.13-.779.309-1.091a1.72 1.72 0 01.79-.709 1.666 1.666 0 01.473-.143l.348 1.158zM223.326 48.076c-.419-.958-.504-1.861-.256-2.708.247-.848.816-1.467 1.706-1.854.899-.392 1.743-.393 2.534-.001.792.391 1.396 1.067 1.816 2.029l.059.132c.422.966.508 1.871.258 2.711-.252.841-.822 1.458-1.717 1.848-.896.391-1.737.391-2.529.002-.789-.39-1.395-1.065-1.814-2.027l-.057-.132zm1.236-.388c.298.687.691 1.189 1.176 1.509.483.32 1.013.354 1.583.105.562-.246.893-.656.986-1.229.099-.575-.004-1.205-.303-1.89l-.058-.132c-.297-.678-.689-1.178-1.179-1.5-.492-.322-1.019-.359-1.586-.112-.563.246-.891.658-.982 1.234-.094.577.008 1.205.304 1.882l.059.133zM230.523 39.398l.637 1.582 1.244-.5.356.885-1.243.5 1.604 3.983c.123.308.274.498.451.573a.745.745 0 00.581-.016 1.537 1.537 0 00.415-.265l.488.755a1.17 1.17 0 01-.32.336 2.178 2.178 0 01-.489.278c-.485.196-.93.204-1.335.027-.404-.178-.733-.58-.986-1.208l-1.602-3.982-1.043.42-.355-.885 1.042-.418-.637-1.583 1.192-.482zM235.189 43.1c-.36-.981-.39-1.888-.092-2.719.299-.831.904-1.414 1.815-1.748.921-.337 1.764-.287 2.529.152.768.438 1.329 1.15 1.691 2.136l.05.135c.363.99.394 1.897.094 2.723-.3.824-.91 1.404-1.825 1.74-.917.336-1.759.286-2.523-.15-.766-.437-1.33-1.148-1.69-2.134l-.049-.135zm1.258-.312c.258.704.619 1.229 1.083 1.578.464.349.988.417 1.572.202.578-.211.933-.6 1.062-1.167.131-.567.067-1.202-.19-1.904l-.049-.135c-.255-.695-.617-1.218-1.087-1.569-.47-.352-.994-.421-1.575-.209-.577.211-.93.603-1.056 1.173-.128.571-.062 1.203.189 1.898l.051.133zM247.686 38.247l1.156 3.958-1.234.36-2.668-9.125 3.305-.966c.999-.292 1.828-.293 2.484-.004.656.29 1.109.856 1.355 1.701a2.14 2.14 0 01-.01 1.33c-.144.418-.419.798-.828 1.141.55.016.988.176 1.314.477.326.301.569.723.727 1.262l.251.859c.084.284.189.53.317.737.129.208.292.359.487.457l.045.151-1.273.372c-.204-.095-.37-.273-.496-.535a5.459 5.459 0 01-.319-.833l-.243-.833c-.145-.494-.405-.849-.782-1.065-.376-.217-.807-.254-1.292-.112l-2.296.668zm-.285-.971l1.945-.569c.696-.205 1.163-.483 1.393-.838.229-.354.266-.803.106-1.346-.15-.513-.417-.867-.797-1.062-.381-.194-.889-.199-1.521-.015l-2.067.605.941 3.225zM258.932 39.635c-.957.226-1.794.087-2.511-.418-.717-.504-1.194-1.265-1.436-2.284l-.064-.279c-.23-.979-.132-1.863.298-2.651.43-.788 1.044-1.277 1.841-1.464.929-.219 1.695-.104 2.302.343.609.448 1.021 1.137 1.24 2.071l.185.782-4.465 1.053-.013.037c.17.657.464 1.159.888 1.508.422.349.924.455 1.505.318a3.243 3.243 0 001.073-.444 2.67 2.67 0 00.713-.695l.68.699c-.187.302-.463.581-.829.837-.365.256-.833.451-1.407.587zm-1.642-6.112c-.419.099-.736.36-.949.782-.215.423-.292.909-.233 1.458l.02.028 3.174-.749-.039-.164c-.115-.49-.344-.869-.685-1.137-.342-.266-.77-.341-1.288-.218zM262.193 35.262c-.199-1.12-.119-2.064.235-2.836.356-.771.966-1.234 1.828-1.387a2.493 2.493 0 011.161.042c.352.104.666.29.943.559l.041-.851.965-.171 1.714 9.638-1.266.225-.594-3.333a2.213 2.213 0 01-.686.733 2.627 2.627 0 01-1.007.384c-.85.152-1.569-.039-2.159-.568-.59-.529-.975-1.297-1.153-2.301l-.022-.134zm1.292-.095c.125.702.37 1.245.737 1.629.368.383.85.521 1.452.415.347-.062.63-.192.85-.39.22-.199.388-.451.506-.759l-.624-3.508a1.964 1.964 0 00-.73-.507 1.68 1.68 0 00-.919-.068c-.604.108-1.008.443-1.208 1.007-.201.563-.229 1.247-.087 2.047l.023.134zM275.04 35.733a2.404 2.404 0 01-.755.964 2.34 2.34 0 01-1.168.438c-.767.086-1.393-.093-1.874-.535-.483-.441-.781-1.18-.897-2.214l-.458-4.144 1.279-.143.46 4.157c.083.75.251 1.252.502 1.51.253.257.612.359 1.08.308.456-.051.819-.184 1.096-.4.276-.217.471-.502.585-.856l-.562-5.066 1.28-.142.779 7.028-1.15.127-.197-1.032zM281.309 36.519c-.981.037-1.776-.261-2.383-.894-.605-.634-.93-1.473-.969-2.518l-.012-.288c-.037-1.006.229-1.853.804-2.544s1.271-1.052 2.089-1.082c.954-.037 1.686.224 2.193.78.509.557.781 1.313.818 2.271l.028.803-4.583.172-.021.034c.039.677.232 1.227.58 1.65.347.423.818.624 1.414.603a3.264 3.264 0 001.14-.23 2.66 2.66 0 00.833-.544l.533.817c-.244.259-.567.479-.976.662-.402.184-.901.286-1.488.308zm-.434-6.313c-.43.017-.792.211-1.083.585s-.461.835-.51 1.384l.015.033 3.26-.122-.009-.169c-.019-.503-.169-.919-.452-1.247-.284-.33-.688-.484-1.221-.464zM289.713 34.586a.87.87 0 00-.293-.711c-.208-.192-.609-.368-1.204-.528-.852-.222-1.483-.502-1.903-.841-.418-.337-.619-.782-.595-1.334.022-.574.288-1.052.794-1.436.502-.383 1.146-.558 1.93-.526.822.035 1.468.273 1.936.716.467.443.68.967.63 1.57l-.014.04-1.229-.051c.016-.309-.104-.592-.352-.849-.25-.257-.587-.395-1.016-.412-.457-.019-.801.067-1.03.257a.945.945 0 00-.362.711c-.013.279.076.503.266.672.188.169.58.33 1.176.479.885.23 1.537.517 1.96.864.421.347.618.797.598 1.349-.026.627-.302 1.125-.823 1.49-.524.366-1.195.532-2.015.498-.899-.038-1.603-.296-2.099-.775-.5-.479-.724-1.023-.672-1.631l.017-.039 1.228.052c.004.456.157.795.467 1.018.31.223.678.343 1.104.362.457.019.818-.058 1.086-.232a.855.855 0 00.415-.713zM295.325 28.189l-.198 1.694 1.33.156-.109.948-1.33-.157-.5 4.265c-.039.328.002.568.123.719.119.15.293.238.518.264.074.009.156.01.247.003s.173-.021.243-.037l.066.896a1.141 1.141 0 01-.439.143c-.19.028-.379.031-.563.009-.519-.061-.914-.266-1.187-.617-.27-.35-.364-.859-.286-1.53l.497-4.264-1.113-.13.109-.949 1.117.131.197-1.694 1.278.15z"/></g><g fill="#467277"><path d="M240.925 194.537l-.924 3.699-1.249-.312 2.302-9.229 3.531.881c.986.246 1.688.689 2.106 1.334.419.643.525 1.379.318 2.209-.21.84-.65 1.443-1.32 1.807-.67.367-1.497.426-2.483.182l-2.281-.571zm.245-.984l2.282.568c.624.158 1.134.105 1.527-.152.392-.258.652-.643.777-1.154.128-.51.078-.975-.146-1.395-.227-.418-.648-.705-1.271-.861l-2.282-.567-.887 3.561zM251.788 195.064l-.631-.199c-.33-.082-.627-.074-.893.025a1.54 1.54 0 00-.688.528l-1.222 4.901-1.25-.312 1.712-6.858 1.117.276-.13 1.033c.282-.308.592-.522.927-.651a1.744 1.744 0 011.321.036c.081.035.147.068.197.101l-.46 1.12zM252.257 197.584c.252-1.016.736-1.781 1.449-2.303.714-.52 1.542-.66 2.485-.428.95.237 1.621.754 2.008 1.547.389.793.455 1.697.201 2.717l-.036.141c-.255 1.021-.739 1.791-1.45 2.305-.711.515-1.541.652-2.488.416-.947-.235-1.613-.75-2.003-1.539-.388-.791-.456-1.694-.201-2.715l.035-.141zm1.214.447c-.18.727-.177 1.365.012 1.914s.584.897 1.189 1.049c.596.148 1.107.025 1.533-.369.425-.396.731-.957.912-1.684l.035-.139c.178-.72.172-1.354-.02-1.908-.19-.558-.587-.908-1.188-1.058-.596-.149-1.105-.022-1.532.377-.427.4-.729.961-.907 1.679l-.034.139zM263.11 194.961l-.413 1.652 1.3.324-.231.926-1.3-.324-1.039 4.164c-.081.322-.071.564.029.73.101.164.262.272.481.328.071.018.151.028.243.032.091.006.174.004.247-.004l-.048.896c-.113.057-.265.082-.457.086a2.227 2.227 0 01-.56-.062c-.506-.127-.872-.381-1.096-.762-.223-.382-.254-.9-.09-1.556l1.041-4.166-1.092-.271.23-.926 1.092.271.412-1.654 1.251.316zM264.66 200.68c.254-1.016.737-1.781 1.452-2.301.714-.52 1.541-.662 2.483-.426.951.236 1.621.752 2.009 1.545s.456 1.699.2 2.717l-.036.141c-.255 1.023-.738 1.791-1.45 2.306-.711.514-1.542.651-2.488.416-.946-.236-1.613-.75-2.002-1.541-.389-.791-.456-1.695-.201-2.716l.033-.141zm1.215.447c-.182.729-.177 1.365.011 1.914.188.549.583.898 1.189 1.051.597.148 1.106.025 1.533-.369.427-.396.731-.959.913-1.686l.035-.137c.18-.719.172-1.355-.02-1.91-.192-.555-.588-.906-1.187-1.057-.597-.148-1.107-.021-1.532.379-.427.397-.729.959-.907 1.678l-.035.137zM277.686 203.396l-1.002 4-1.249-.312 2.306-9.228 3.34.838c1.012.253 1.728.669 2.147 1.25.42.58.523 1.3.311 2.152a2.164 2.164 0 01-.68 1.146c-.334.286-.766.478-1.289.563.465.293.764.65.894 1.076s.126.912-.01 1.455l-.218.869a3.12 3.12 0 00-.1.797c.008.244.07.459.19.641l-.038.15-1.287-.322c-.129-.184-.182-.42-.158-.711.022-.291.072-.586.146-.881l.211-.844c.125-.498.079-.936-.137-1.312-.215-.379-.568-.627-1.059-.75l-2.318-.577zm.246-.984l1.965.492c.705.178 1.246.17 1.625-.021.377-.19.636-.561.771-1.106.13-.521.078-.959-.152-1.318-.229-.361-.664-.621-1.303-.779l-2.092-.524-.814 3.256zM286.896 210.092c-.955-.24-1.637-.746-2.039-1.525-.406-.776-.481-1.672-.229-2.686l.07-.281c.242-.977.736-1.715 1.48-2.219.742-.504 1.512-.656 2.307-.457.927.23 1.557.686 1.89 1.361.333.675.384 1.479.151 2.41l-.194.779-4.451-1.113-.026.024c-.15.66-.119 1.244.097 1.748.215.505.61.828 1.19.974.424.104.81.139 1.158.1.348-.043.665-.139.951-.291l.285.934c-.307.183-.68.303-1.121.363-.44.062-.948.021-1.519-.121zm1.346-6.184c-.419-.104-.82-.018-1.204.258-.384.277-.677.674-.877 1.188l.006.035 3.163.791.042-.164c.122-.488.093-.932-.086-1.324-.182-.393-.529-.655-1.044-.784zM291.729 207.65c.277-1.104.733-1.935 1.377-2.49.639-.559 1.385-.732 2.232-.52.419.104.768.274 1.044.514.277.238.488.537.632.896l.385-.76.951.237-2.377 9.496-1.248-.312.821-3.282a2.208 2.208 0 01-.925.387 2.561 2.561 0 01-1.077-.062c-.837-.209-1.416-.676-1.737-1.399-.32-.728-.357-1.582-.11-2.57l.032-.135zm1.216.442c-.174.693-.172 1.289.007 1.787.179.5.563.824 1.153.973.344.086.655.082.937-.008.28-.092.537-.254.772-.486l.863-3.457a1.95 1.95 0 00-.459-.762 1.68 1.68 0 00-.809-.438c-.598-.15-1.102-.008-1.516.424-.414.434-.72 1.045-.918 1.832l-.03.135zM303.448 213.016a2.425 2.425 0 01-1.044.644 2.41 2.41 0 01-1.246.004c-.748-.188-1.271-.574-1.571-1.154-.3-.582-.321-1.377-.067-2.389l1.014-4.043 1.248.312-1.016 4.055c-.184.732-.201 1.263-.056 1.591.147.329.448.551.903.666.443.108.835.11 1.169.006a1.75 1.75 0 00.848-.601l1.239-4.944 1.248.312-1.719 6.859-1.121-.281.171-1.037zM309.275 215.695c-.955-.24-1.633-.748-2.039-1.525-.403-.777-.479-1.674-.227-2.688l.071-.279c.244-.977.737-1.717 1.479-2.219.744-.502 1.515-.654 2.309-.455.926.232 1.556.686 1.891 1.363.334.674.383 1.479.149 2.407l-.195.779-4.45-1.115-.027.027c-.15.659-.118 1.241.097 1.746.215.504.61.827 1.19.973.423.106.809.142 1.158.101.349-.039.666-.14.951-.291l.284.936c-.306.182-.679.301-1.123.363-.439.061-.947.018-1.518-.123zm1.349-6.183c-.419-.104-.819-.02-1.204.26-.383.277-.676.672-.876 1.187l.005.035 3.163.793.041-.164c.122-.488.095-.933-.086-1.324-.181-.397-.528-.658-1.043-.787zM318.047 215.814a.874.874 0 00-.145-.758c-.164-.229-.521-.482-1.071-.761-.787-.392-1.353-.793-1.694-1.211-.342-.414-.447-.892-.312-1.426.14-.558.495-.974 1.065-1.246.571-.272 1.237-.313 2-.125.799.2 1.381.565 1.75 1.094.367.529.469 1.084.299 1.666l-.021.033-1.19-.297c.073-.3.017-.603-.177-.902-.192-.303-.493-.504-.907-.608-.443-.111-.799-.099-1.062.043a.945.945 0 00-.499.621c-.066.271-.027.508.124.713s.503.438 1.056.709c.818.401 1.4.817 1.743 1.244.343.424.445.903.312 1.44-.152.608-.521 1.039-1.108 1.291-.587.254-1.276.278-2.071.08-.875-.22-1.509-.613-1.898-1.185-.391-.57-.5-1.146-.327-1.731l.022-.033 1.19.3c-.09.446-.006.811.25 1.092.259.281.594.475 1.01.576.443.11.812.108 1.107-.009a.855.855 0 00.554-.61zM324.451 210.314l-.417 1.653 1.298.324-.23.929-1.301-.328-1.045 4.164c-.081.319-.07.562.029.729.1.164.26.273.48.33.069.018.151.029.243.033.091.006.173.004.247-.006l-.05.897c-.113.051-.265.08-.457.084a2.369 2.369 0 01-.56-.063c-.508-.127-.873-.381-1.097-.765-.223-.381-.253-.897-.089-1.555l1.047-4.164-1.09-.272.23-.925 1.092.271.416-1.651 1.254.315z"/></g><g fill="#467277"><path d="M232.964 136.373l.612 3.779-1.271.209-1.526-9.406 3.593-.584c1.002-.163 1.822-.031 2.46.395.639.428 1.027 1.061 1.164 1.903.14.856-.026 1.583-.5 2.183-.471.601-1.209.981-2.209 1.145l-2.323.376zm-.162-.999l2.32-.378c.637-.104 1.085-.352 1.345-.744.258-.393.344-.848.26-1.367-.085-.52-.313-.928-.688-1.224-.371-.296-.873-.394-1.505-.29l-2.322.377.59 3.626zM243.05 132.527l-.657.074c-.335.059-.604.188-.805.385a1.54 1.54 0 00-.414.763l.865 4.983-1.27.222-1.212-6.974 1.132-.198.3.995c.136-.395.33-.717.584-.971a1.746 1.746 0 011.221-.5c.089 0 .163.004.221.012l.035 1.209zM244.438 134.654c-.188-1.028-.067-1.928.367-2.695.434-.77 1.129-1.242 2.083-1.418.965-.18 1.787.012 2.469.574.683.561 1.118 1.355 1.309 2.39l.025.142c.192 1.035.07 1.936-.364 2.697-.434.762-1.132 1.235-2.092 1.414-.959.178-1.78-.016-2.462-.574-.681-.559-1.117-1.354-1.308-2.387l-.027-.143zm1.293-.095c.136.736.403 1.316.802 1.737.399.421.906.575 1.518.462.605-.113 1.02-.438 1.244-.973.224-.536.267-1.174.133-1.91l-.026-.141c-.136-.728-.404-1.303-.809-1.729-.405-.424-.91-.581-1.519-.468-.604.111-1.017.438-1.239.979-.221.541-.263 1.176-.129 1.902l.025.141zM253.075 127.757l.329 1.675 1.314-.259.184.937-1.314.258.826 4.213c.063.324.178.54.338.646.16.105.352.138.574.094.072-.014.15-.038.235-.073.084-.034.157-.07.221-.11l.337.833a1.102 1.102 0 01-.376.271 2.148 2.148 0 01-.534.182c-.514.102-.953.026-1.316-.225-.365-.25-.611-.707-.74-1.369l-.827-4.213-1.104.217-.183-.936 1.102-.217-.327-1.673 1.261-.251zM256.854 132.291c-.213-1.023-.112-1.925.304-2.704.417-.778 1.1-1.269 2.052-1.466.96-.2 1.786-.027 2.481.518.694.547 1.148 1.332 1.363 2.359l.027.141c.217 1.032.114 1.935-.303 2.707-.418.772-1.103 1.258-2.059 1.456-.956.2-1.779.026-2.474-.516-.693-.543-1.148-1.328-1.362-2.354l-.029-.141zm1.289-.126c.153.733.433 1.306.843 1.718.409.414.918.557 1.527.428.601-.125 1.009-.457 1.22-1 .211-.541.242-1.18.089-1.912l-.029-.14c-.15-.724-.433-1.294-.847-1.71-.413-.416-.923-.561-1.529-.436-.602.125-1.007.462-1.216 1.009-.209.545-.238 1.18-.088 1.903l.03.14zM269.6 129.004l.939 4.014-1.254.295-2.167-9.258 3.353-.785c1.016-.237 1.84-.193 2.48.131.639.324 1.06.916 1.261 1.772.11.476.084.917-.082 1.328-.166.41-.462.774-.888 1.095.546.045.975.229 1.285.547.31.319.528.752.657 1.299l.203.873c.067.289.161.539.278.752.116.216.271.375.46.483l.037.152-1.292.302c-.2-.105-.355-.292-.467-.561a5.55 5.55 0 01-.273-.85l-.197-.846c-.117-.5-.358-.87-.723-1.105-.364-.236-.792-.299-1.283-.184l-2.327.546zm-.231-.986l1.971-.461c.708-.166 1.187-.42 1.436-.761.249-.342.309-.788.18-1.338-.121-.521-.369-.888-.738-1.104-.369-.215-.875-.246-1.516-.098l-2.099.493.766 3.269zM280.773 130.68c-.955.241-1.793.117-2.521-.375-.726-.494-1.216-1.246-1.476-2.259l-.068-.278c-.249-.978-.165-1.861.251-2.658.415-.795 1.021-1.293 1.813-1.496.924-.235 1.692-.135 2.308.302.614.437 1.041 1.12 1.276 2.049l.197.779-4.443 1.131-.012.038c.18.654.483 1.15.912 1.492.428.342.932.438 1.51.291a3.221 3.221 0 001.064-.463c.29-.2.523-.437.7-.707l.694.688c-.184.305-.455.588-.814.852-.357.263-.82.466-1.391.614zm-1.75-6.084c-.418.106-.73.373-.937.799-.207.426-.274.914-.209 1.461l.021.027 3.16-.804-.041-.165c-.125-.487-.358-.863-.705-1.124-.341-.261-.773-.324-1.289-.194zM288.419 126.549a.883.883 0 00-.499-.588c-.257-.12-.691-.164-1.309-.136-.877.047-1.566-.025-2.069-.22-.502-.192-.826-.557-.974-1.088-.152-.556-.047-1.091.315-1.609.363-.52.923-.885 1.679-1.092.795-.219 1.481-.188 2.062.09.581.279.94.713 1.081 1.302l-.003.041-1.185.326c-.082-.298-.281-.532-.597-.699-.315-.169-.679-.196-1.09-.083-.44.121-.742.309-.903.561a.953.953 0 00-.129.789c.074.269.229.455.459.558s.654.135 1.268.098c.91-.052 1.621.022 2.129.224.508.203.835.568.98 1.103.165.604.057 1.161-.33 1.67-.388.508-.976.872-1.765 1.089-.87.239-1.614.207-2.237-.097-.619-.304-.998-.753-1.137-1.349l.003-.041 1.185-.326c.143.433.396.709.758.826.361.121.748.123 1.16.008.44-.121.763-.307.963-.553.202-.248.263-.514.185-.804zM296.753 122.654c.294.977.296 1.834.009 2.572-.287.74-.842 1.232-1.664 1.479-.416.124-.805.166-1.16.119a2.205 2.205 0 01-.994-.388l.996 3.311-1.232.37-2.816-9.375.945-.284.457.818a2.33 2.33 0 01.604-.994c.277-.27.636-.471 1.074-.602.838-.252 1.59-.117 2.254.41.666.526 1.162 1.335 1.491 2.43l.036.134zm-1.274.237c-.229-.768-.569-1.353-1.021-1.755-.449-.401-.971-.516-1.559-.339-.354.105-.631.278-.834.514s-.338.516-.41.842l.981 3.268c.237.232.507.391.804.471.299.08.627.067.992-.041.581-.177.961-.522 1.133-1.039.174-.518.156-1.115-.045-1.789l-.041-.132zM297.982 121.921c-.33-.991-.332-1.899-.008-2.721s.947-1.386 1.868-1.691c.931-.309 1.772-.233 2.525.229.752.461 1.294 1.191 1.624 2.187l.045.138c.332 1 .335 1.908.009 2.723-.325.814-.952 1.375-1.878 1.684-.926.307-1.766.231-2.518-.229s-1.293-1.188-1.623-2.184l-.044-.136zm1.267-.273c.235.709.58 1.248 1.033 1.61.454.363.976.446 1.567.25.582-.194.947-.571 1.096-1.135.147-.562.104-1.199-.131-1.909l-.045-.137c-.233-.701-.58-1.235-1.039-1.602-.457-.367-.979-.451-1.567-.257-.584.193-.946.574-1.093 1.14-.145.565-.102 1.201.133 1.902l.046.138zM305.557 115.675l.455.955c.09-.435.264-.81.525-1.127a2.366 2.366 0 011.025-.714c.715-.266 1.347-.262 1.894.01.548.273.983.846 1.31 1.721l1.557 4.183-1.207.448-1.547-4.158c-.217-.583-.485-.955-.807-1.115-.324-.159-.722-.15-1.195.025-.346.13-.623.328-.828.595a1.965 1.965 0 00-.385.924l1.799 4.833-1.207.448-2.465-6.626 1.076-.402zM317.617 116.473a.874.874 0 00-.571-.519c-.269-.084-.707-.071-1.313.039-.862.163-1.556.182-2.08.058-.524-.125-.894-.441-1.108-.951-.224-.527-.19-1.072.101-1.637.291-.562.799-.997 1.52-1.303.759-.321 1.443-.383 2.056-.184s1.026.582 1.243 1.147l.004.041-1.132.479c-.121-.285-.351-.488-.685-.615-.334-.125-.697-.104-1.092.062-.42.179-.695.404-.82.675a.94.94 0 00-.023.797c.109.258.285.422.528.494s.667.049 1.271-.07c.896-.172 1.609-.191 2.139-.059s.902.454 1.119.963c.244.576.209 1.144-.106 1.698-.315.556-.851.993-1.604 1.312-.83.353-1.574.42-2.229.201-.655-.22-1.09-.613-1.305-1.186l-.004-.041 1.131-.479c.199.41.486.65.859.72a1.97 1.97 0 001.15-.146c.423-.18.716-.404.882-.676.163-.27.188-.543.069-.82zM324.221 115.619c-.883.436-1.729.488-2.541.158s-1.449-.963-1.91-1.901l-.129-.257c-.445-.903-.548-1.787-.307-2.651s.729-1.478 1.464-1.841c.854-.423 1.629-.484 2.321-.186.691.301 1.251.879 1.674 1.74l.355.721-4.114 2.031-.002.036c.312.604.711 1.026 1.202 1.271.49.245 1.004.235 1.539-.029.389-.192.705-.417.943-.675.239-.258.418-.536.537-.837l.822.528c-.116.334-.323.67-.62 1.002-.295.333-.707.628-1.234.89zm-2.975-5.586c-.389.191-.637.517-.75.976s-.079.951.1 1.472l.025.023 2.925-1.443-.073-.151c-.225-.452-.531-.771-.924-.954-.392-.183-.826-.158-1.303.077z"/></g><g fill="#467277"><path d="M216.277 264.289l-1.703 3.416-1.152-.574 4.246-8.516 3.256 1.625c.908.453 1.497 1.039 1.768 1.758s.215 1.459-.168 2.223c-.386.777-.946 1.271-1.68 1.482-.732.211-1.554.088-2.463-.363l-2.104-1.051zm.452-.906l2.105 1.053c.577.287 1.085.347 1.523.179.438-.166.776-.486 1.012-.957.234-.472.287-.937.157-1.394-.129-.457-.48-.832-1.054-1.116l-2.105-1.05-1.638 3.285zM226.842 266.957l-.586-.307c-.31-.142-.603-.185-.882-.134a1.575 1.575 0 00-.771.396l-2.078 4.604-1.173-.528 2.907-6.445 1.049.473-.311.99c.333-.25.676-.408 1.026-.475a1.73 1.73 0 011.053.139c.088.039.168.084.242.135.071.052.132.095.176.134l-.652 1.018zM226.939 269.559c.397-.967.986-1.653 1.768-2.065s1.621-.433 2.521-.062c.907.371 1.496.979 1.765 1.818.27.84.205 1.748-.194 2.719l-.055.133c-.4.976-.991 1.666-1.77 2.07-.779.404-1.618.424-2.522.053-.901-.371-1.488-.977-1.759-1.813-.271-.838-.206-1.742.192-2.715l.054-.138zm1.138.621c-.284.691-.374 1.324-.266 1.894.106.571.448.977 1.024 1.213.568.231 1.092.184 1.572-.146.479-.33.859-.842 1.145-1.532l.054-.136c.282-.684.366-1.313.258-1.891-.109-.576-.45-.982-1.022-1.217-.568-.234-1.091-.183-1.569.151-.48.334-.86.845-1.141 1.529l-.055.135zM237.995 268.377l-.594 1.6 1.255.468-.332.895-1.255-.467-1.494 4.025c-.116.311-.134.553-.051.727a.75.75 0 00.44.381c.07.025.148.045.239.062.09.014.172.02.246.02l-.147.887a1.167 1.167 0 01-.463.035 2.21 2.21 0 01-.55-.125c-.49-.182-.826-.475-1.006-.879-.18-.404-.152-.922.083-1.555l1.494-4.023-1.055-.393.332-.896 1.056.392.594-1.599 1.208.445zM238.96 274.254c.331-.99.872-1.719 1.623-2.182.753-.463 1.589-.541 2.51-.234.93.309 1.558.875 1.884 1.695.325.817.322 1.729-.01 2.723l-.045.139c-.334 1-.874 1.729-1.624 2.187-.749.459-1.587.531-2.513.223-.926-.308-1.552-.871-1.879-1.688-.326-.82-.322-1.728.009-2.724l.045-.139zm1.177.543c-.236.709-.281 1.344-.136 1.906.145.562.515.94 1.105 1.139.582.193 1.102.111 1.557-.252.456-.361.802-.896 1.039-1.606l.046-.138c.233-.698.276-1.334.129-1.901-.148-.568-.516-.951-1.103-1.146-.583-.192-1.102-.106-1.557.26-.455.365-.801.9-1.034 1.604l-.046.134zM251.929 277.748l-1.049 3.986-1.244-.326 2.419-9.195 3.33.877c1.008.264 1.718.689 2.131 1.275.414.586.508 1.305.284 2.156-.124.473-.355.852-.693 1.137-.339.285-.771.469-1.297.551.462.297.756.658.88 1.086.124.426.114.912-.029 1.455l-.227.865a2.937 2.937 0 00-.108.795c.003.246.062.459.182.645l-.041.152-1.282-.34c-.127-.187-.177-.424-.149-.715.026-.291.078-.582.156-.877l.221-.841c.133-.498.092-.938-.12-1.315-.211-.379-.561-.633-1.049-.765l-2.315-.606zm.259-.98l1.96.517c.702.186 1.245.186 1.625 0 .38-.187.642-.553.785-1.099.136-.518.091-.957-.137-1.321-.226-.361-.657-.627-1.294-.795l-2.085-.55-.854 3.248zM261.345 284.42c-.963-.207-1.658-.693-2.09-1.457-.429-.764-.534-1.654-.312-2.678l.06-.281c.214-.984.683-1.738 1.411-2.268.726-.525 1.489-.701 2.289-.529.933.201 1.577.635 1.932 1.301.356.662.434 1.465.229 2.402l-.17.785-4.482-.97-.026.025c-.13.666-.08 1.248.151 1.742.231.498.639.811 1.223.936.426.095.812.111 1.16.062.348-.053.661-.158.942-.32l.315.924c-.301.191-.67.324-1.109.398-.44.076-.949.053-1.523-.072zm1.145-6.225c-.423-.09-.82.01-1.195.299-.374.291-.654.695-.838 1.215l.006.035 3.188.688.036-.166c.105-.491.062-.932-.13-1.319-.192-.386-.547-.638-1.067-.752zM270.289 284.074a.876.876 0 00-.198-.744c-.181-.219-.556-.443-1.125-.682-.813-.332-1.405-.691-1.776-1.082-.373-.39-.511-.855-.416-1.4.1-.566.423-1.006.975-1.32.549-.313 1.211-.403 1.982-.27.812.143 1.42.465 1.826.963.405.5.545 1.047.419 1.641l-.02.035-1.21-.213c.055-.303-.025-.6-.239-.887-.212-.287-.529-.467-.95-.541-.451-.078-.803-.039-1.055.121a.944.944 0 00-.453.658c-.05.272.01.508.176.698.165.191.532.402 1.104.633.846.341 1.456.712 1.827 1.111.374.398.512.869.417 1.414-.107.619-.445 1.074-1.013 1.369-.566.297-1.253.373-2.061.231-.888-.157-1.547-.504-1.979-1.045-.432-.539-.582-1.106-.451-1.705l.02-.034 1.21.213c-.058.451.053.809.33 1.069a1.96 1.96 0 001.046.502c.452.078.82.052 1.107-.088a.844.844 0 00.507-.647zM279.723 284.021c-.134 1.012-.482 1.793-1.049 2.348-.564.557-1.273.779-2.124.668-.432-.06-.802-.18-1.108-.369a2.192 2.192 0 01-.747-.76l-.452 3.426-1.275-.168 1.281-9.703.978.129.082.933c.272-.306.592-.523.956-.656.365-.133.773-.17 1.229-.107.867.113 1.496.547 1.888 1.299.39.755.511 1.695.362 2.826l-.021.134zm-1.258-.308c.104-.793.034-1.467-.211-2.02-.247-.552-.674-.867-1.283-.947-.365-.049-.691-.008-.973.125-.28.131-.52.33-.718.6l-.447 3.384c.122.311.301.563.538.76.238.196.545.319.92.369.605.08 1.093-.082 1.461-.482.37-.4.6-.951.694-1.65l.019-.139zM281.408 283.871c.092-1.041.449-1.873 1.072-2.5.621-.625 1.418-.896 2.386-.812.976.087 1.719.49 2.226 1.212.508.723.717 1.606.625 2.649l-.013.146c-.091 1.049-.449 1.885-1.071 2.504-.622.616-1.421.885-2.393.801-.973-.086-1.713-.488-2.219-1.209-.508-.721-.718-1.604-.625-2.648l.012-.143zm1.272.254c-.066.744.036 1.375.309 1.887.272.515.72.797 1.341.853.61.053 1.097-.148 1.455-.605.36-.459.571-1.061.639-1.807l.013-.144c.063-.735-.041-1.364-.317-1.881-.276-.518-.722-.805-1.339-.856-.611-.056-1.098.149-1.454.612-.357.463-.568 1.062-.634 1.8l-.013.141zM290.955 281.125l.045 1.057c.252-.364.559-.643.922-.834a2.413 2.413 0 011.225-.258c.763.031 1.344.279 1.742.744.397.463.577 1.16.537 2.092l-.189 4.459-1.286-.055.188-4.434c.025-.621-.076-1.068-.312-1.343-.235-.27-.604-.418-1.109-.438a1.792 1.792 0 00-.994.225c-.293.168-.529.4-.714.701l-.22 5.152-1.286-.058.302-7.063 1.149.053zM301.723 286.547a.87.87 0 00-.324-.699c-.215-.184-.623-.342-1.225-.477-.857-.188-1.505-.439-1.938-.758-.435-.322-.65-.756-.65-1.31 0-.575.243-1.063.73-1.469.486-.405 1.123-.606 1.908-.606.821 0 1.477.211 1.963.633.485.422.717.936.696 1.541l-.013.039-1.229.002c0-.312-.129-.588-.39-.834-.259-.244-.603-.369-1.028-.369-.459 0-.799.102-1.02.301a.944.944 0 00-.334.727c.001.277.1.498.295.658.195.162.596.306 1.195.431.895.19 1.56.452 1.994.78.436.328.653.771.654 1.322 0 .627-.254 1.135-.761 1.523-.508.389-1.171.582-1.989.584-.902 0-1.613-.229-2.131-.688-.52-.457-.766-.99-.738-1.6l.012-.041h1.229c.022.457.192.787.511.998.317.209.689.313 1.117.313.457 0 .816-.092 1.074-.276.262-.184.394-.426.392-.725zM308.053 288.391c-.984.041-1.779-.252-2.39-.883-.608-.633-.937-1.469-.979-2.514l-.012-.287c-.043-1.008.221-1.855.791-2.549s1.266-1.058 2.083-1.094c.953-.039 1.685.219 2.196.771.511.552.789 1.312.828 2.268l.035.804-4.584.192-.018.035c.041.676.237 1.226.586 1.648.35.42.821.619 1.417.594a3.28 3.28 0 001.14-.234c.322-.139.6-.319.83-.549l.539.816c-.244.26-.566.481-.975.666-.403.187-.901.288-1.487.316zm-.465-6.313c-.431.02-.791.217-1.079.59-.288.375-.457.838-.504 1.387l.015.031 3.258-.137-.006-.168c-.021-.506-.176-.92-.459-1.248-.286-.326-.693-.478-1.225-.455zM312.291 284.148c-.133-1.714.102-3.199.695-4.466.599-1.264 1.262-2.129 1.988-2.59l.041.002.305.738c-.56.51-1.02 1.293-1.381 2.354-.36 1.059-.481 2.344-.366 3.85l.006.084c.118 1.508.433 2.758.952 3.748.518.992 1.095 1.715 1.732 2.174l-.193.723-.038.002c-.792-.346-1.577-1.096-2.362-2.252-.783-1.155-1.243-2.592-1.375-4.309l-.004-.058zM321.419 285.271a.877.877 0 00-.399-.66c-.232-.156-.656-.271-1.271-.338-.874-.091-1.543-.271-2.01-.539-.468-.269-.729-.679-.792-1.228-.064-.57.123-1.084.562-1.541.439-.455 1.051-.729 1.828-.813.818-.095 1.492.045 2.021.412.529.364.818.85.863 1.454l-.008.039-1.221.138c-.035-.308-.195-.568-.48-.783-.283-.217-.638-.299-1.062-.254-.455.051-.782.188-.979.414a.94.94 0 00-.25.758.811.811 0 00.364.621c.214.141.626.238 1.236.297.909.092 1.599.275 2.067.555.471.277.735.693.797 1.242.069.623-.125 1.154-.588 1.598-.461.441-1.099.709-1.912.8-.896.102-1.627-.05-2.191-.443-.566-.398-.871-.9-.912-1.51l.007-.041 1.222-.138c.071.451.276.763.617.937.338.174.721.236 1.146.188.454-.051.801-.184 1.038-.396.238-.216.34-.472.307-.769zM326.977 282.564c.25 1.702.119 3.207-.391 4.506-.512 1.303-1.113 2.209-1.803 2.721l-.039.004-.35-.66c.518-.539.918-1.356 1.207-2.461.289-1.102.323-2.404.103-3.906l-.015-.086c-.215-1.475-.627-2.696-1.235-3.672-.606-.975-1.224-1.656-1.849-2.049l.144-.736.038-.006c.811.291 1.646.986 2.51 2.088.864 1.104 1.422 2.502 1.67 4.201l.01.056z"/></g></svg>